<?xml version="1.0" encoding="UTF-8"?>
<svg width="251px" height="192px" viewBox="0 0 251 192" version="1.1" xmlns="http://www.w3.org/2000/svg" xmlns:xlink="http://www.w3.org/1999/xlink">
    <title>Group 4</title>
    <defs>
        <path d="M6.41388871,-1.16596292e-15 L244.586111,-7.25822532e-15 C246.81636,4.21723793e-15 247.625102,0.23221521 248.440448,0.668266829 C249.255794,1.10431845 249.895682,1.74420648 250.331733,2.55955212 C250.767785,3.37489775 251,4.18363987 251,6.41388871 L251,185.586111 C251,187.81636 250.767785,188.625102 250.331733,189.440448 C249.895682,190.255794 249.255794,190.895682 248.440448,191.331733 C247.625102,191.767785 246.81636,192 244.586111,192 L6.41388871,192 C4.18363987,192 3.37489775,191.767785 2.55955212,191.331733 C1.74420648,190.895682 1.10431845,190.255794 0.668266829,189.440448 C0.23221521,188.625102 5.35905342e-15,187.81636 -9.22338693e-15,185.586111 L1.7275252e-16,6.41388871 C-1.00374189e-16,4.18363987 0.23221521,3.37489775 0.668266829,2.55955212 C1.10431845,1.74420648 1.74420648,1.10431845 2.55955212,0.668266829 C3.37489775,0.23221521 4.18363987,6.77458034e-16 6.41388871,-1.16596292e-15 Z" id="path-1"></path>
    </defs>
    <g id="iPad" stroke="none" stroke-width="1" fill="none" fill-rule="evenodd">
        <g id="Group-4">
            <mask id="mask-2" fill="white">
                <use xlink:href="#path-1"></use>
            </mask>
            <use id="Rectangle" fill="#415385" xlink:href="#path-1"></use>
            <g id="Blue/Light-Mode/Product-Illustrations/Appkit-4.0/Homepage/Hero" mask="url(#mask-2)">
                <g transform="translate(-46.828358, -12.508143)" id="Group">
                    <path d="M63.7669887,165.874773 C66.7962521,161.229164 86.4765212,147.922814 88.1668104,149.124036 C89.8570996,150.325257 97.67883,162.231288 96.8237426,163.691337 C96.8237426,163.691337 96.5320848,166.837077 95.4980256,168.244033 C95.4980256,168.244033 76.7126154,191.113701 70.5281455,188.585162 C64.3436756,186.056624 63.7669887,165.874773 63.7669887,165.874773 Z" id="Path" fill="#E89B7C" fill-rule="nonzero"></path>
                    <rect id="Rectangle" fill="#E27588" fill-rule="nonzero" x="79.7882789" y="105.866783" width="33.1959542" height="33.2360111" rx="2.44534202"></rect>
                    <rect id="Rectangle" fill="#D93954" fill-rule="nonzero" x="79.7882789" y="144.551429" width="33.1959542" height="33.2360111" rx="2.44534202"></rect>
                    <path d="M88.5181254,168.409948 C93.4497928,165.815043 96.2669414,161.773364 95.8095691,156.291546 C95.7499118,155.515066 95.1467105,154.964229 94.5567665,155.236329 C92.0843042,156.265 85.7540055,158.076787 79.7683931,160.319952 L79.7683931,175.205809 C79.7683931,176.63527 80.9258034,177.794077 82.3535413,177.794077 L83.460515,177.794077 C83.460515,177.336153 83.5002865,176.871592 83.5069151,176.380485 C83.5566846,172.994301 85.4900973,169.919128 88.5181254,168.409948 L88.5181254,168.409948 Z" id="Path" fill="#C22031" fill-rule="nonzero"></path>
                    <rect id="Rectangle" fill="#9AA4BE" fill-rule="nonzero" x="118.426301" y="105.866783" width="33.1959542" height="33.2360111" rx="2.44534202"></rect>
                    <path d="M120.858244,144.571458 L149.203571,144.571458 C150.554096,144.571458 151.648913,145.666275 151.648913,147.0168 L151.648913,175.32207 C151.648913,176.672595 150.554096,177.767412 149.203571,177.767412 L120.858244,177.767412 C119.507718,177.767412 118.412902,176.672595 118.412902,175.32207 L118.412902,147.0168 C118.412902,145.666275 119.507718,144.571458 120.858244,144.571458 Z" id="Rectangle" fill="#FFB600" fill-rule="nonzero" transform="translate(135.030907, 161.169435) rotate(90.000000) translate(-135.030907, -161.169435) "></path>
                    <path d="M67.4922535,50.2853946 C67.6314538,50.0796605 77.9190179,38.0740806 81.5183396,33.8797597 C82.2962958,32.9795811 83.4388644,32.4795614 84.627146,32.5192601 L95.5841972,32.8046332 L89.5455561,53.7563279 C89.5455561,53.7563279 86.1517206,71.7613794 63.6145312,67.6135146 L67.4922535,50.2853946 Z" id="Path" fill="#AD5923" fill-rule="nonzero"></path>
                    <ellipse id="Oval" fill="#FFB600" fill-rule="nonzero" cx="103.081127" cy="52.5949257" rx="26.6071406" ry="26.6392469"></ellipse>
                    <path d="M89.6714992,42.3015844 C89.7112708,41.3326432 89.1279553,40.6092556 88.1933248,40.7419873 L78.6017621,42.1423064 C75.9221624,48.452147 75.7679033,55.5518792 78.1709041,61.9724185 C79.4413644,59.2723685 80.4362791,56.4507831 81.1405102,53.5505938 C81.1405102,53.5505938 89.3665843,50.3716702 89.6714992,42.3015844 Z" id="Path" fill="#FF9100" fill-rule="nonzero"></path>
                    <path d="M115.218066,64.8526958 C115.291544,65.3427945 115.147622,65.8405842 114.824019,66.2156003 C114.500416,66.5906164 114.029395,66.8054703 113.534406,66.8038952 L92.6344768,66.8038952 C92.1383327,66.807416 91.6654833,66.593399 91.3403895,66.2181326 C91.0152956,65.8428662 90.8705265,65.3439463 90.9441876,64.8526958 C91.8929847,58.8781791 97.0388528,54.4805591 103.081127,54.4805591 C109.123401,54.4805591 114.269269,58.8781791 115.218066,64.8526958 L115.218066,64.8526958 Z M103.081127,52.5950055 C105.891727,52.608363 108.432925,50.9232419 109.517189,48.3270401 C110.601452,45.7308383 110.014677,42.7362132 108.031071,40.7425897 C106.047465,38.7489662 103.058719,38.1500138 100.461511,39.2256305 C97.864303,40.3012471 96.1714888,42.8390367 96.1741381,45.6530592 C96.1777438,49.4751006 99.2637338,52.5766751 103.081127,52.5950055 L103.081127,52.5950055 Z" id="Shape" fill="#FFF5DE" fill-rule="nonzero"></path>
                    <ellipse id="Oval" fill="#E27588" fill-rule="nonzero" cx="161.246961" cy="52.7542037" rx="26.6071406" ry="26.6392469"></ellipse>
                    <path d="M152.019971,62.5365355 C151.518414,62.5355169 151.043855,62.3089159 150.727397,61.9193258 L144.065669,53.6700523 C143.575625,53.0620604 143.575625,52.1941569 144.065669,51.586165 L150.727397,43.3368915 C151.095223,42.8632544 151.689788,42.6253317 152.282348,42.7146578 C152.874908,42.8039839 153.373141,43.2066415 153.585364,43.7677186 C153.797587,44.3287958 153.690735,44.9608744 153.305916,45.4207788 L147.486018,52.6281087 L153.305916,59.8354385 C153.582899,60.17651 153.712738,60.6140174 153.66671,61.0511796 C153.620683,61.4883418 153.402584,61.8891277 153.060659,62.1648794 C152.767531,62.4062423 152.399494,62.5376749 152.019971,62.5365355 L152.019971,62.5365355 Z M171.740011,61.9193258 L178.368596,53.6700523 C178.866333,53.0648017 178.866333,52.1914156 178.368596,51.586165 L171.740011,43.3368915 C171.372185,42.8632544 170.77762,42.6253317 170.18506,42.7146578 C169.5925,42.8039839 169.094267,43.2066415 168.882044,43.7677186 C168.669821,44.3287958 168.776673,44.9608744 169.161492,45.4207788 L174.988018,52.6281087 L169.161492,59.8354385 C168.776673,60.2953429 168.669821,60.9274215 168.882044,61.4884987 C169.094267,62.0495758 169.5925,62.4522334 170.18506,62.5415595 C170.77762,62.6308856 171.372185,62.3929629 171.740011,61.9193258 Z M159.311414,61.7600478 L166.198514,45.0093106 C166.546296,44.1607974 166.141203,43.1906681 165.293712,42.8424661 C164.446222,42.4942641 163.477262,42.8998465 163.129479,43.7483597 L156.249008,60.4990969 C156.080576,60.9055537 156.081021,61.3624838 156.250245,61.7686108 C156.419468,62.1747379 156.743491,62.4965155 157.150496,62.6626232 C157.349873,62.746374 157.563998,62.7892507 157.780211,62.7889055 C158.461256,62.7989253 159.079179,62.3908671 159.337929,61.7600478 L159.311414,61.7600478 Z" id="Shape" fill="#FFF5DE" fill-rule="nonzero"></path>
                    <path d="M193.435391,99.3762042 L193.435391,94.6045005 C193.435391,93.9520799 192.907117,93.4231886 192.255482,93.4231886 L189.942106,93.4231886 C189.753867,92.8378902 189.516605,92.2695497 189.232847,91.7242232 L190.876737,90.084987 C191.335067,89.6219462 191.335067,88.8756087 190.876737,88.4125679 L187.502787,85.0411834 C187.283461,84.8178423 186.983733,84.6920504 186.670899,84.6920504 C186.358065,84.6920504 186.058338,84.8178423 185.839012,85.0411834 L184.195123,86.6804196 C183.649158,86.3990967 183.081734,86.1616449 182.498205,85.9703051 L182.498205,83.6541374 C182.498205,83.0017169 181.969951,82.4728255 181.318317,82.4728255 L176.552364,82.4728255 C175.90073,82.4728255 175.372476,83.0017169 175.372476,83.6541374 L175.372476,85.9703051 C174.789431,86.1629444 174.222106,86.4003544 173.675558,86.6804196 L172.038298,85.0411834 C171.817831,84.8174499 171.517009,84.6915024 171.203096,84.6915024 C170.889183,84.6915024 170.588361,84.8174499 170.367894,85.0411834 L167.000573,88.4125679 C166.777109,88.6333007 166.651314,88.9344852 166.651314,89.2487775 C166.651314,89.5630697 166.777109,89.8642542 167.000573,90.084987 L168.637834,91.7242232 C168.35685,92.2708463 168.119684,92.8389553 167.928575,93.4231886 L165.615199,93.4231886 C164.963565,93.4231886 164.435311,93.9520799 164.435311,94.6045005 L164.435311,99.3762042 C164.435311,100.028625 164.963565,100.557516 165.615199,100.557516 L167.928575,100.557516 C168.119684,101.141749 168.35685,101.709858 168.637834,102.256481 L167.000573,103.902354 C166.777501,104.121945 166.651861,104.422034 166.651861,104.735245 C166.651861,105.048457 166.777501,105.348546 167.000573,105.568137 L170.367894,108.946158 C170.830377,109.405041 171.575815,109.405041 172.038298,108.946158 L173.675558,107.300285 C174.220776,107.583212 174.788332,107.820719 175.372476,108.0104 L175.372476,110.326567 C175.372476,110.978988 175.90073,111.507898 176.552364,111.507898 L181.318317,111.507898 C181.631784,111.509657 181.932926,111.385769 182.154584,111.163844 C182.376242,110.941918 182.499981,110.640412 182.498205,110.326567 L182.498205,108.0104 C183.082798,107.821933 183.650453,107.584385 184.195123,107.300285 L185.839012,108.946158 C186.299228,109.404268 187.042571,109.404268 187.502787,108.946158 L190.876737,105.568137 C191.334295,105.107365 191.334295,104.363126 190.876737,103.902354 L189.232847,102.256481 C189.516605,101.711155 189.753867,101.142814 189.942106,100.557516 L192.288625,100.557516 C192.928806,100.543039 193.439151,100.01731 193.435391,99.3762042 L193.435391,99.3762042 Z M178.938655,101.420272 C177.15042,101.420272 175.538265,100.341765 174.853937,98.6876576 C174.169609,97.0335501 174.547874,95.1295899 175.812347,93.8635908 C177.076821,92.5975917 178.978486,92.2188705 180.6306,92.9040243 C182.282714,93.589178 183.359921,95.2032775 183.359921,96.9936706 C183.359921,99.438415 181.380453,101.420272 178.938655,101.420272 L178.938655,101.420272 Z" id="Shape" fill="#FFB600" fill-rule="nonzero"></path>
                    <path d="M222.634288,28.3183026 C222.619848,27.0986337 221.631975,26.1154735 220.413712,26.1083202 L198.632181,26.1083202 C197.41095,26.1083202 196.418896,27.0956191 196.411605,28.3183026 C196.186233,56.7096076 191.605881,67.3148684 188.974333,71.0844479 C188.160654,72.250623 188.370593,73.8457755 189.458219,74.7611153 C200.561099,84.3111592 201.323387,103.650164 201.276987,109.676182 C201.273442,110.161906 201.464141,110.628861 201.806572,110.972952 C202.149002,111.317042 202.614699,111.509665 203.099847,111.507904 L206.612998,111.507904 C207.619736,111.507904 208.435859,110.690772 208.435859,109.682819 L208.435859,76.8118196 C205.631896,76.2569026 203.706223,73.6621802 203.984671,70.8141276 C204.26312,67.966075 206.654788,65.7944701 209.513004,65.7944701 C212.371219,65.7944701 214.762887,67.966075 215.041336,70.8141276 C215.319784,73.6621802 213.394111,76.2569026 210.590149,76.8118196 L210.590149,109.682819 C210.590149,110.690772 211.406271,111.507904 212.41301,111.507904 L215.92616,111.507904 C216.411308,111.509665 216.877005,111.317042 217.219436,110.972952 C217.561866,110.628861 217.752565,110.161906 217.749021,109.676182 C217.70262,103.650164 218.458279,84.3111592 229.561159,74.7611153 C230.660423,73.8549577 230.882338,72.2564009 230.07156,71.0844479 C227.420126,67.3148684 222.85966,56.7096076 222.634288,28.3183026 Z" id="Path" fill="#9AA4BE" fill-rule="nonzero"></path>
                    <path d="M222.614402,28.3183026 C222.614402,28.2386636 222.614402,28.1590246 222.614402,28.0860222 L211.697122,26.0950471 L198.632181,26.0950471 C197.41095,26.0950471 196.418896,27.082346 196.411605,28.3050294 C196.365205,33.9195792 196.15309,38.8306512 195.815032,43.137794 L223.65509,48.1815976 C222.966822,41.5828567 222.619463,34.9529249 222.614402,28.3183026 L222.614402,28.3183026 Z" id="Path" fill="#62719A" fill-rule="nonzero"></path>
                    <path d="M222.614402,28.3183026 C222.599963,27.0986337 221.61209,26.1154735 220.393826,26.1083202 L198.632181,26.1083202 C197.41095,26.1083202 196.418896,27.0956191 196.411605,28.3183026 C196.371834,33.6939354 196.172976,38.4258196 195.854804,42.6002307 L223.164575,42.6002307 C222.853031,38.4258196 222.654174,33.6939354 222.614402,28.3183026 Z" id="Path" fill="#D93954" fill-rule="nonzero"></path>
                    <path d="M218.962052,29.7982608 L221.16937,32.0082431 C221.571386,32.4057659 222.123325,32.6132943 222.687316,32.5789893 C222.647545,31.1985799 222.621031,29.7916242 222.614402,28.3183026 C222.599963,27.0986337 221.61209,26.1154735 220.393826,26.1083202 L219.863539,26.1083202 L218.962052,27.0108956 C218.20412,27.7850734 218.20412,29.024083 218.962052,29.7982608 L218.962052,29.7982608 Z" id="Path" fill="#C22031" fill-rule="nonzero"></path>
                    <path d="M241.472727,46.0114347 C241.296537,46.0124546 241.127191,45.9432017 241.002097,45.8189738 L203.186019,7.96390043 C203.017879,7.79674331 202.951582,7.55247402 203.0121,7.32310644 C203.072617,7.09373886 203.250757,6.9141194 203.479415,6.85190897 C203.708073,6.78969854 203.95251,6.85434839 204.12065,7.02150554 L241.903585,44.8832155 C242.093932,45.0722314 242.151819,45.3574339 242.050254,45.6058415 C241.948689,45.8542491 241.707673,46.0169459 241.439584,46.0180713 L241.472727,46.0114347 Z" id="Path" fill="#9AA4BE" fill-rule="nonzero"></path>
                    <path d="M240.160267,44.0403694 C240.887658,43.3320277 242.049264,43.3427818 242.763447,44.0644695 C243.477631,44.7861572 243.477631,45.949215 242.763447,46.6709027 C242.049264,47.3925904 240.887658,47.4033445 240.160267,46.6950028 C239.802289,46.3463995 239.600335,45.8676681 239.600335,45.3676861 C239.600335,44.8677041 239.802289,44.3889727 240.160267,44.0403694 L240.160267,44.0403694 Z M202.344189,8.79347339 C203.066834,9.51539877 204.237053,9.51453832 204.958639,8.79155101 C205.680225,8.0685637 205.680225,6.89693252 204.958639,6.17394521 C204.237053,5.4509579 203.066834,5.45009745 202.344189,6.17202283 C201.996482,6.51938301 201.801078,6.99096459 201.801078,7.48274811 C201.801078,7.97453163 201.996482,8.44611321 202.344189,8.79347339 L202.344189,8.79347339 Z M221.16937,22.8165747 L218.962052,25.0199205 C218.199779,25.7949025 218.199779,27.0389403 218.962052,27.8139222 L221.16937,30.017268 C221.942615,30.776114 223.180132,30.776114 223.953376,30.017268 L226.160695,27.8139222 C226.922968,27.0389403 226.922968,25.7949025 226.160695,25.0199205 L223.953376,22.8165747 C223.180132,22.0577287 221.942615,22.0577287 221.16937,22.8165747 L221.16937,22.8165747 Z" id="Shape" fill="#132043" fill-rule="nonzero"></path>
                    <path d="M160.763074,174.920436 C160.396988,174.920436 160.100216,174.623306 160.100216,174.256778 L160.100216,120.712821 C160.100216,120.346292 160.396988,120.049162 160.763074,120.049162 C161.129161,120.049162 161.425933,120.346292 161.425933,120.712821 L161.425933,174.256778 C161.425933,174.623306 161.129161,174.920436 160.763074,174.920436 Z" id="Path" fill="#9AA4BE" fill-rule="nonzero"></path>
                    <path d="M157.236667,122.272418 L157.236667,119.146587 C157.236667,118.047002 158.126983,117.155612 159.225243,117.155612 L162.347306,117.155612 C163.445566,117.155612 164.335882,118.047002 164.335882,119.146587 L164.335882,122.272418 C164.335882,123.372003 163.445566,124.263393 162.347306,124.263393 L159.225243,124.263393 C158.126983,124.263393 157.236667,123.372003 157.236667,122.272418 Z M159.225243,177.78744 L162.347306,177.78744 C163.445566,177.78744 164.335882,176.896051 164.335882,175.796465 L164.335882,172.677271 C164.335882,171.577686 163.445566,170.686296 162.347306,170.686296 L159.225243,170.686296 C158.126983,170.686296 157.236667,171.577686 157.236667,172.677271 L157.236667,175.796465 C157.236667,176.888322 158.114871,177.776522 159.205357,177.78744 L159.225243,177.78744 Z M162.632335,147.484799 C162.632335,146.462185 161.804342,145.633192 160.78296,145.633192 C159.761578,145.633192 158.933585,146.462185 158.933585,147.484799 C158.933585,148.507414 159.761578,149.336406 160.78296,149.336406 C161.796568,149.325493 162.612508,148.499689 162.61245,147.484799 L162.632335,147.484799 Z" id="Shape" fill="#132043" fill-rule="nonzero"></path>
                    <path d="M151.628884,84.2846129 C151.262798,84.2846129 150.966026,84.5817428 150.966026,84.9482712 L150.966026,98.5532678 L141.911378,98.5532678 L141.911378,84.9482712 C141.911378,84.5817428 141.614607,84.2846129 141.24852,84.2846129 C140.882433,84.2846129 140.585661,84.5817428 140.585661,84.9482712 L140.585661,98.5532678 L131.577414,98.5532678 L131.577414,84.9482712 C131.577414,84.5817428 131.280642,84.2846129 130.914556,84.2846129 C130.548469,84.2846129 130.251697,84.5817428 130.251697,84.9482712 L130.251697,98.5532678 L121.216936,98.5532678 L121.216936,84.9482712 C121.216936,84.5817428 120.920164,84.2846129 120.554077,84.2846129 C120.187991,84.2846129 119.891219,84.5817428 119.891219,84.9482712 L119.891219,98.5532678 L110.863086,98.5532678 L110.863086,84.9482712 C110.863086,84.5817428 110.566314,84.2846129 110.200227,84.2846129 C109.834141,84.2846129 109.537369,84.5817428 109.537369,84.9482712 L109.537369,98.5532678 L100.502607,98.5532678 L100.502607,84.9482712 C100.502607,84.5817428 100.205835,84.2846129 99.8397488,84.2846129 C99.4736621,84.2846129 99.1768903,84.5817428 99.1768903,84.9482712 L99.1768903,98.5532678 L90.1487574,98.5532678 L90.1487574,84.9482712 C90.1487574,84.5817428 89.8519855,84.2846129 89.4858989,84.2846129 C89.1198122,84.2846129 88.8230404,84.5817428 88.8230404,84.9482712 L88.8230404,98.5532678 L80.4511374,98.5532678 L80.4511374,84.9482712 C80.4511374,84.5817428 80.1543655,84.2846129 79.7882789,84.2846129 C79.4221922,84.2846129 79.1254204,84.5817428 79.1254204,84.9482712 L79.1254204,99.2169262 C79.1254204,99.5834546 79.4221922,99.8805845 79.7882789,99.8805845 L151.628884,99.8805845 C151.994971,99.8805845 152.291743,99.5834546 152.291743,99.2169262 L152.291743,84.9482712 C152.291743,84.5817428 151.994971,84.2846129 151.628884,84.2846129 Z" id="Path" fill="#1A2A5A" fill-rule="nonzero"></path>
                    <path d="M151.628884,83.056832 C150.592106,83.0530569 149.744599,83.8838471 149.72648,84.9217249 L122.025623,94.4916786 C121.643702,93.9924936 121.038292,93.7168798 120.41151,93.7568503 C119.784728,93.7968209 119.219138,94.1471108 118.90356,94.6907761 L101.702381,91.1202941 C101.583855,90.12007 100.70801,89.3851481 99.7036549,89.4431616 C98.6992999,89.5011751 97.9136816,90.3320663 97.9108305,91.3393013 C97.9108305,91.3724842 97.9108305,91.3990306 97.9108305,91.4322135 L81.1736531,97.9692484 C80.5616679,97.2836247 79.5478247,97.1336251 78.7639318,97.6127268 C77.9800389,98.0918284 77.6499258,99.0632305 77.9793127,99.9215734 C78.3086996,100.779916 79.2035349,101.280112 80.1061738,101.110449 C81.0088128,100.940785 81.6615197,100.149707 81.6575399,99.2301993 L81.6575399,99.2301993 L98.4278602,92.6798912 C98.8236638,93.1009791 99.3895991,93.3184607 99.9651584,93.2706549 C100.540718,93.222849 101.063122,92.9149703 101.384209,92.4343376 L118.61853,96.0247294 C118.791535,96.9763981 119.649529,97.6471109 120.613631,97.5843432 C121.577732,97.5215755 122.341745,96.7452623 122.390195,95.7791758 L150.10431,86.195949 C150.461214,86.6402012 150.999784,86.898832 151.569227,86.8994268 C152.578128,86.8398274 153.365817,86.0032847 153.365817,84.991409 C153.365817,83.9795333 152.578128,83.1429907 151.569227,83.0833912 L151.628884,83.056832 Z" id="Path" fill="#D93954" fill-rule="nonzero"></path>
                    <path d="M266.561921,165.363756 C266.567181,166.356405 267.161118,167.250994 268.073239,167.640104 L297.683128,180.189884 L297.683128,141.067223 C290.855686,138.35286 284.532015,135.897324 283.265956,135.578768 C280.382521,134.855381 266.382949,145.679649 266.561921,165.363756 Z" id="Path" fill="#DF7989" fill-rule="nonzero"></path>
                    <path d="M247.869311,132.970591 C243.229302,133.57452 232.146307,145.347819 227.937156,150.000065 C227.549337,150.432011 227.437299,151.045702 227.647423,151.587075 C227.857548,152.128449 228.354074,152.505365 228.931444,152.561786 C235.016485,153.172352 239.981295,147.252519 239.981295,147.252519 C242.341071,147.252519 244.018103,147.252519 244.018103,147.252519 C244.018103,147.252519 233.127338,160.412864 226.55841,168.874509 C219.989482,177.336153 222.892803,178.829384 222.892803,178.829384 C219.008452,182.778151 219.48571,186.023441 220.194968,187.709133 C220.329308,188.019909 220.609545,188.243181 220.942185,188.304461 C221.274826,188.365741 221.616087,188.256962 221.852115,188.014416 L223.84069,186.023441 C223.754165,186.709613 223.883945,187.405705 224.211891,188.014416 C224.358342,188.277317 224.613105,188.462207 224.90822,188.519767 C225.203336,188.577326 225.508787,188.5017 225.743094,188.313062 L264.778832,156.822473 L297.683128,174.986802 L297.683128,147.013602 C276.584342,140.297379 251.20349,132.539213 247.869311,132.970591 Z" id="Path" fill="#B38066" fill-rule="nonzero"></path>
                    <path d="M280.402407,152.110498 C275.391197,163.551968 267.397123,167.952023 266.721007,166.199965 C266.945698,166.84248 267.425403,167.363589 268.046724,167.640104 L297.828358,180.189884 L297.828358,141.123573 C291.000916,138.40921 284.532015,135.897324 283.265956,135.578768 C282.865098,135.519466 282.455703,135.567554 282.079439,135.718136 C284.889959,134.782378 282.967669,146.257031 280.402407,152.110498 Z" id="Path" fill="#E998A6" fill-rule="nonzero"></path>
                    <path d="M232.537394,145.088993 L232.537394,152.20341 C231.369135,152.551496 230.145253,152.673131 228.931444,152.561786 C228.354074,152.505365 227.857548,152.128449 227.647423,151.587075 C227.437299,151.045702 227.549337,150.432011 227.937156,150.000065 C229.064015,148.752387 230.68139,147.000329 232.537394,145.088993 Z M226.246867,180.090335 L221.805715,180.090335 C222.14483,179.656807 222.507752,179.242488 222.892803,178.849294 C222.892803,178.849294 219.982854,177.342789 226.55841,168.894418 C228.334871,166.611434 230.429504,163.97671 232.524137,161.355259 L232.524137,163.870524 C235.129171,161.335349 237.435918,159.105457 238.098777,158.461709 C238.110122,157.59386 238.172094,156.727416 238.284377,155.866805 C238.342152,155.50935 238.675448,155.264244 239.033407,155.315968 C239.393117,155.370595 239.64162,155.705295 239.590208,156.065902 C239.365208,158.359863 239.334164,160.668755 239.497408,162.967949 C239.52007,163.066205 239.52007,163.168339 239.497408,163.266595 C239.58358,164.819556 239.729409,166.61807 239.974666,168.675411 C240.001704,168.903593 239.908926,169.129541 239.729409,169.272704 C239.669752,169.325796 236.169859,172.099888 232.504251,175.524365 L232.504251,177.80735 C232.504251,179.075538 231.47742,180.103608 230.210761,180.103608 L227.976927,180.103608 C227.049706,181.128095 226.198955,182.219435 225.431551,183.368807 C225.232033,183.676691 224.821004,183.764344 224.513492,183.564586 C224.205979,183.364829 224.118431,182.953304 224.317948,182.64542 C224.90922,181.755808 225.553354,180.902575 226.246867,180.090335 L226.246867,180.090335 Z M232.537394,168.383401 C235.149056,165.828317 237.442547,163.618334 238.17832,162.90822 C238.13192,161.932642 238.105405,161.076523 238.098777,160.306679 L232.537394,165.708858 L232.537394,168.383401 Z M232.537394,173.692668 C235.301514,171.16413 237.800491,169.133335 238.648949,168.449767 C238.489863,167.062721 238.377177,165.795134 238.291006,164.640368 C237.044832,165.84159 234.857399,167.95866 232.537394,170.241645 L232.537394,173.692668 Z M255.014926,146.389763 C255.172277,146.208433 255.180073,145.941161 255.033559,145.750947 C254.887045,145.560733 254.626878,145.500359 254.411725,145.606646 C250.50086,147.245882 244.018103,147.259155 244.018103,147.259155 L244.018103,147.259155 L240.352496,151.71894 C248.969656,151.672484 253.158922,148.546653 255.014926,146.389763 L255.014926,146.389763 Z" id="Shape" fill="#82503C" fill-rule="nonzero"></path>
                    <path d="M49.9530173,12.9147919 C50.499621,12.0855185 50.499621,11.0097927 49.9530173,10.1805194 L43.3575751,0 L0,0 C3.97715106,5.86673998 17.7248366,26.2941446 19.4681544,28.2453002 C21.4501014,30.4552826 39.1020235,29.3270633 49.9530173,12.9147919 Z" id="Path" fill="#62719A" fill-rule="nonzero"></path>
                    <path d="M62.0568137,68.4696339 C65.662764,69.3921191 74.2931818,68.9076484 78.9994772,50.8893237 C78.9994772,50.8893237 87.6166379,49.482368 89.0152693,42.739599 C89.0901992,42.3238821 88.9764044,41.8963452 88.7047868,41.5730894 C88.4331693,41.2498337 88.0319228,41.064413 87.6100093,41.0671799 L76.719244,41.0671799 C75.5705455,41.0664953 74.474161,41.5479459 73.6966092,42.3944966 L67.8634543,48.7390706 L39.0489948,0 L1.92891826,0 C10.5792218,11.1892801 53.4860532,66.2861979 62.0568137,68.4696339 Z" id="Path" fill="#C47939" fill-rule="nonzero"></path>
                    <path d="M64.4497329,51.4998894 L65.4108778,44.5978424 L67.8634543,48.7390706 L65.1788773,51.8317186 C65.0576943,51.9717196 64.8589416,52.0151849 64.6904909,51.938524 C64.5220402,51.8618631 64.4240619,51.6833573 64.4497329,51.4998894 L64.4497329,51.4998894 Z M45.5516368,11.0167289 L41.6474002,4.41332815 L16.63112,6.49057885 L16.1737476,18.1444198 C19.2825541,22.046731 22.6830182,26.2543251 26.169654,30.528285 C26.6667979,29.0217805 30.7500063,18.1776027 45.5516368,11.0034558 L45.5516368,11.0167289 Z" id="Shape" fill="#AD5923" fill-rule="nonzero"></path>
                    <path d="M20.5287281,28.7961366 C17.6718079,27.99311 25.6791387,19.5646487 31.074807,16.1468081 C41.6275144,9.51022443 50.708676,10.3066145 50.2977037,12.1648579 C50.4702203,11.4986054 50.354738,10.7904227 49.9795317,10.2137023 L43.3575751,0 L0,0 C3.97715106,5.86673998 17.7248366,26.2941446 19.4681544,28.2453002 C19.7682862,28.5174572 20.1336545,28.7072207 20.5287281,28.7961366 Z" id="Path" fill="#9AA4BE" fill-rule="nonzero"></path>
                    <rect id="Rectangle" fill="#D93954" fill-rule="nonzero" x="170.003322" y="117.175522" width="60.5388677" height="60.6119188" rx="2.16390879"></rect>
                    <path d="M192.520626,134.609827 L202.562932,160.339862 L198.784639,160.339862 L195.974119,152.594969 L185.109868,152.594969 L182.226433,160.339862 L178.739797,160.339862 L188.742332,134.609827 L192.520626,134.609827 Z M194.900288,149.708055 L190.611593,137.709112 L190.545307,137.709112 L186.190327,149.708055 L194.900288,149.708055 Z M221.063313,160.26686 C220.38594,160.614001 219.629235,160.776511 218.869251,160.738057 C218.177109,160.772517 217.498998,160.534296 216.980105,160.074399 C216.454378,159.477833 216.199879,158.689376 216.277475,157.897599 C215.49904,158.860959 214.488492,159.610077 213.341011,160.074399 C211.422669,160.812658 209.324449,160.944678 207.328885,160.452684 C206.624271,160.286559 205.959612,159.982026 205.373452,159.556745 C204.806927,159.138087 204.351703,158.586601 204.047735,157.950692 C203.382669,156.349425 203.40424,154.544853 204.107392,152.959981 C204.44921,152.30457 204.942341,151.740311 205.545795,151.314108 C206.150691,150.88659 206.822854,150.563562 207.534371,150.35844 C208.29003,150.146069 209.065574,149.960245 209.854376,149.820877 C210.643177,149.681509 211.491636,149.522231 212.247295,149.442592 C212.918467,149.371776 213.583258,149.24975 214.23587,149.077579 C214.737248,148.968166 215.205351,148.740658 215.601359,148.413921 C215.959447,148.06941 216.144337,147.582269 216.105131,147.086604 C216.131629,146.522191 216.000811,145.961523 215.727302,145.467278 C215.49308,145.07281 215.156306,144.749392 214.7529,144.53152 C214.341277,144.306011 213.892017,144.157576 213.427183,144.093505 C212.944322,144.022562 212.456926,143.987073 211.968894,143.98732 C210.842824,143.94636 209.725566,144.200277 208.727516,144.723981 C207.8658,145.223936 207.39738,146.15527 207.322256,147.517982 L204.266478,147.517982 C204.278834,146.5026 204.523748,145.503598 204.982366,144.597885 C205.395996,143.826333 205.989481,143.16611 206.712426,142.673276 C207.45984,142.166265 208.2966,141.805933 209.17826,141.611423 C210.152089,141.387529 211.148722,141.278391 212.147866,141.28623 C212.98406,141.286218 213.819184,141.346101 214.646843,141.465418 C215.434543,141.571417 216.196162,141.821098 216.893933,142.202079 C217.564158,142.571078 218.124568,143.111552 218.517936,143.768312 C218.955578,144.570329 219.166423,145.476677 219.127766,146.389763 L219.127766,155.959717 C219.109699,156.491499 219.15195,157.023616 219.253709,157.54586 C219.339881,157.877689 219.618282,158.050241 220.102168,158.050241 C220.418527,158.040277 220.732446,157.991238 221.036799,157.904236 L221.063313,160.26686 Z M216.098503,150.716816 C215.649839,151.047021 215.133713,151.273666 214.587185,151.380474 C213.95747,151.513206 213.307869,151.619391 212.59861,151.705667 C211.889351,151.791942 211.219864,151.884854 210.523863,151.99104 C209.881124,152.082341 209.252845,152.25633 208.654602,152.508693 C208.135142,152.734471 207.679661,153.085615 207.328885,153.530727 C206.958527,154.059537 206.776435,154.697628 206.811855,155.342514 C206.796008,155.7871 206.90142,156.227611 207.11677,156.616738 C207.31312,156.953452 207.582732,157.241536 207.905572,157.459585 C208.251293,157.683597 208.635685,157.84114 209.03906,157.924145 C209.489488,158.024349 209.949774,158.073328 210.411177,158.07015 C211.292749,158.089595 212.170634,157.950223 213.002954,157.658682 C213.649766,157.423055 214.247533,157.069812 214.766157,156.616738 C215.189423,156.235193 215.532018,155.772583 215.773702,155.256239 C215.974282,154.822894 216.084786,154.353248 216.098503,153.875829 L216.098503,150.716816 Z" id="Shape" fill="#FFF5DE" fill-rule="nonzero"></path>
                    <path d="M258.892648,29.1080561 C258.892648,29.1080561 249.035942,38.976656 248.870228,41.2994603 C248.704513,43.6222646 261.22591,54.3270741 261.22591,54.3270741 L272.494505,37.5697003 L258.892648,29.1080561 Z" id="Path" fill="#D5845B" fill-rule="nonzero"></path>
                    <path d="M239.683009,48.0223196 C241.194326,46.7348223 246.125993,45.0093106 255.830242,48.2214171 C255.830242,48.2214171 261.13311,46.230442 262.187055,43.4231671 C262.511856,42.5272283 261.656768,36.2092006 259.694707,35.4592667 C255.478927,33.8465768 248.949771,34.8885205 248.949771,34.8885205 C248.11585,36.9395821 247.104456,38.9137364 245.927136,40.7884434 C244.500223,42.8612385 242.058467,43.9907367 239.557066,43.7350865 C239.283539,43.7000224 239.03823,43.5490207 238.883515,43.3204766 C238.7288,43.0919325 238.679583,42.8078641 238.748378,42.5405014 C239.557066,39.4943095 242.168728,29.8845364 243.388388,29.1146926 C248.180855,26.1415032 263.532658,25.0132839 267.145237,25.9556788 C273.183878,27.5285491 290.583914,49.562007 290.583914,49.562007 L281.688352,57.6719123 C281.688352,57.6719123 259.992993,62.9811792 255.578356,58.8067681 C247.544511,51.2012432 243.249187,51.2609724 239.888495,49.5951899 C239.601277,49.4558289 239.403392,49.1811048 239.361997,48.8642495 C239.320602,48.5473941 239.441254,48.2309547 239.683009,48.0223196 L239.683009,48.0223196 Z" id="Path" fill="#E9A97F" fill-rule="nonzero"></path>
                    <path d="M269.014498,59.9681702 C273.276349,59.425387 277.506791,58.6589124 281.688352,57.6719123 L287.481736,52.3626453 L285.58596,43.8678182 C285.58596,43.8678182 275.377939,42.8325111 269.014498,59.9681702 Z" id="Path" fill="#D5845B" fill-rule="nonzero"></path>
                    <path d="M310.940299,57.1144392 L289.065968,44.412018 C288.019705,43.7928011 286.772545,43.6093142 285.592589,43.9010011 C282.02641,44.8367594 274.595766,48.095322 273.767193,58.7337657 C273.713958,59.8639051 274.18338,60.9556507 275.039882,61.693682 L310.940299,94.7571419 L310.940299,57.1144392 Z" id="Path" fill="#FFB600" fill-rule="nonzero"></path>
                    <path d="M95.7167689,154.92441 C95.7565404,154.181112 95.1997392,153.670095 94.5501379,153.895739 C88.988755,155.813712 66.3587654,160.532323 63.7669887,165.874773 C60.9299542,171.741513 51.95485,211.6672 51.95485,211.6672 L75.1018692,215.64915 C75.1018692,215.64915 73.6899806,191.199976 73.683352,189.149272 C73.6767234,187.098567 81.6906828,184.74258 80.7891952,170.699569 C80.616852,168.091392 79.9274791,165.82168 86.3903496,164.394815 C90.9044161,163.4126 95.4184825,160.140764 95.7167689,154.92441 Z" id="Path" fill="#F9BFA2" fill-rule="nonzero"></path>
                    <path d="M76.9512444,217.016287 L75.7183276,203.384744 C75.6545527,202.726254 75.3148993,202.125717 74.7836971,201.732234 C67.9297401,196.549063 59.2264079,196.98044 55.7066292,197.425092 C54.7516972,197.539343 53.9701991,198.239561 53.7511966,199.17715 L49.5818166,217.016287 L76.9512444,217.016287 Z" id="Path" fill="#D93954" fill-rule="nonzero"></path>
                </g>
            </g>
        </g>
    </g>
</svg>